<mxfile host="app.diagrams.net" modified="2024-03-06T14:50:13.989Z" agent="Mozilla/5.0 (Macintosh; Intel Mac OS X 10_15_7) AppleWebKit/537.36 (KHTML, like Gecko) Chrome/121.0.0.0 Safari/537.36" version="24.0.2" etag="IlpUfxc4ArD_y4WrTodF" type="github">
  <diagram name="Page-1" id="8I_OuP4SY0y7ME5x4KUn">
    <mxGraphModel>
      <root>
        <mxCell id="0" />
        <mxCell id="1" parent="0" />
      </root>
    </mxGraphModel>
  </diagram>
</mxfile>
